/* XPM */
static char *_e51a2813dec42a6dfd33babe820c803qEtdehe8XGL0hx4J[] = {
/* columns rows colors chars-per-pixel */
"64 64 224 2 ",
"   c None",
".  c #040405",
"X  c #060906",
"o  c #060708",
"O  c #070908",
"+  c #090C0A",
"@  c #090303",
"#  c #09140A",
"$  c #0B190D",
"%  c #181817",
"&  c #130905",
"*  c #2A1508",
"=  c #142716",
"-  c #36210B",
";  c #3B2C14",
":  c #252625",
">  c #292929",
",  c #3B3B3B",
"<  c #373836",
"1  c #2F302F",
"2  c #10283A",
"3  c #481702",
"4  c #482812",
"5  c #502712",
"6  c #792C02",
"7  c #6A3B1B",
"8  c #783E1D",
"9  c #652B13",
"0  c #4F3B2A",
"q  c #763E21",
"w  c #3C413B",
"e  c #347235",
"r  c #7A441D",
"t  c #544436",
"y  c #4A423B",
"u  c #654527",
"i  c #744624",
"p  c #6B4B35",
"a  c #64542F",
"s  c #2E3B47",
"d  c #3A4B4F",
"f  c #394A55",
"g  c #2C4855",
"h  c #2B5267",
"j  c #355362",
"k  c #3B5562",
"l  c #2A536D",
"z  c #3E6175",
"x  c #444443",
"c  c #4C4D4C",
"v  c #4B4548",
"b  c #514A48",
"n  c #4E524E",
"m  c #475C46",
"M  c #4A545B",
"N  c #535453",
"B  c #5C5D5B",
"V  c #555A59",
"C  c #59554F",
"Z  c #665E54",
"A  c #695847",
"S  c #5E635D",
"D  c #5E685D",
"F  c #68645A",
"G  c #766859",
"H  c #465964",
"J  c #485D73",
"K  c #575E60",
"L  c #665D65",
"P  c #5F6261",
"I  c #556B7A",
"U  c #4B626D",
"Y  c #636363",
"T  c #646A64",
"R  c #6C6C6C",
"E  c #686666",
"W  c #6D746C",
"Q  c #737473",
"!  c #7B7C7B",
"~  c #7D7878",
"^  c #726B6D",
"/  c #9A3102",
"(  c #8C350C",
")  c #A93804",
"_  c #89491B",
"`  c #9A4D16",
"'  c #A5430D",
"]  c #A9541C",
"[  c #B35613",
"{  c #BF6517",
"}  c #864923",
"|  c #974E23",
" . c #9A5527",
".. c #94582E",
"X. c #AD5A27",
"o. c #A75826",
"O. c #B15A25",
"+. c #BA5E29",
"@. c #B75E29",
"#. c #A15D3A",
"$. c #9C612A",
"%. c #AB6028",
"&. c #B5612B",
"*. c #BB672C",
"=. c #A96934",
"-. c #BA7639",
";. c #AE6B35",
":. c #C95E15",
">. c #D5691A",
",. c #DB7217",
"<. c #E7671A",
"1. c #FF721E",
"2. c #C2642C",
"3. c #CC6728",
"4. c #D66A2B",
"5. c #D86F30",
"6. c #C97537",
"7. c #D77634",
"8. c #D27321",
"9. c #EA6D27",
"0. c #EB7628",
"q. c #FE7E2D",
"w. c #FA7927",
"e. c #EA7633",
"r. c #E57A35",
"t. c #ED7934",
"y. c #E67431",
"u. c #F37B35",
"i. c #FB7D34",
"p. c #89644B",
"a. c #986A49",
"s. c #937949",
"d. c #866B58",
"f. c #91764E",
"g. c #A86C44",
"h. c #A97655",
"j. c #956561",
"k. c #D77347",
"l. c #7A8579",
"z. c #76A973",
"x. c #B18833",
"c. c #FE812D",
"v. c #EB8239",
"b. c #FE8235",
"n. c #FE8539",
"m. c #FF8C3C",
"M. c #FF8D35",
"N. c #FF923D",
"B. c #F1913D",
"V. c #ED973B",
"C. c #D18D2B",
"Z. c #B99C4B",
"A. c #86837E",
"S. c #B88C72",
"D. c #C59847",
"F. c #FF9942",
"G. c #EB814F",
"H. c #FBA443",
"J. c #FFB448",
"K. c #F7BE54",
"L. c #ECA544",
"P. c #CE8F6F",
"I. c #FFC658",
"U. c #FFD158",
"Y. c #F8D564",
"T. c #365F80",
"R. c #5B7583",
"E. c #556D81",
"W. c #657A86",
"Q. c #797E80",
"!. c #807E80",
"~. c #798992",
"^. c #798BA4",
"/. c #838483",
"(. c #868A85",
"). c #8D8E8D",
"_. c #888689",
"`. c #908C8F",
"'. c #8E908E",
"]. c #879686",
"[. c #918B91",
"{. c #939493",
"}. c #979897",
"|. c #9B9C9B",
" X c #999898",
".X c #8B9094",
"XX c #9EA19E",
"oX c #9DAB9C",
"OX c #96A394",
"+X c #88B184",
"@X c #A0AE9F",
"#X c #A2A29E",
"$X c #8A98A1",
"%X c #949EA5",
"&X c #A29EA2",
"*X c #99A3A8",
"=X c #8AADBC",
"-X c #91A7B3",
";X c #A3A4A3",
":X c #A2AEA1",
">X c #ABACAA",
",X c #A6A9A9",
"<X c #A5B3A4",
"1X c #A8B7A7",
"2X c #ADB2AD",
"3X c #ACBBAB",
"4X c #A7B9A6",
"5X c #B5B5B4",
"6X c #BBBDBB",
"7X c #B1B7AE",
"8X c #C5AAA0",
"9X c #B3C3B2",
"0X c #BACBB8",
"qX c #B0C1AF",
"wX c #C1D2BF",
"eX c #97B5CB",
"rX c #9AA9C0",
"tX c #B1CAD5",
"yX c #C3D4C2",
"uX c #CADCC9",
"iX c #DBD7D1",
"pX c #D7EAD6",
"aX c #E3E2DF",
"sX c #F5FBFB",
/* pixels */
"                                                                                                                                ",
"                                                  i 7 u                                                                         ",
"                                            * 7 | X.&.O.o.%.$.                                                                  ",
"                                      & } +.5.5.2.o.o.3.4.O.&.7.6.                                                              ",
"                                    ; v.F.m.n.b.b.r.*.} 3.b.+._ v.B.- . o o #                                                   ",
"                                  5 m.m.e.t.t.t.t.u.n.v.} +.i.4.8 v.v.@ . o . . o + +                                           ",
"                                9 F.n.e.t.t.t.t.t.t.e.b.r.} 5.t.2.8 2.4 . o o o o . . o +                                       ",
"                              ; N.b.e.t.t.t.t.t.t.t.t.e.m.&.o.y.y.| } @.4 . o o o o o o . . X                                   ",
"                            $ y.m.e.t.t.t.t.t.t.t.t.t.t.u.t.o.5.e.X.q o.y.& . X o o o o X o . . $                               ",
"                            r F.e.t.t.t.t.t.t.t.t.t.t.t.t.n.X.+.u.X._ ( u.[ . . . . . o o o o o . .                             ",
"                          @ e.n.t.t.t.t.t.t.t.t.t.t.t.t.t.n.*.o.t.<.7 < Q P.b . . @ . . . o o o o . o                           ",
"                      X . 4 N.u.t.t.t.t.t.t.t.t.t.t.t.t.t.i.5.X.9.h.d f V J I s.D.K.x.- . . o o o o o . .                       ",
"                    $ . . r N.e.t.t.t.t.t.t.t.t.t.t.t.t.t.u.t.O.9.R g , V s x.Y.U.x.h.e.6 . . o o o X o . $                     ",
"                  X . o .  .m.e.t.t.t.t.t.t.t.t.t.t.t.t.t.t.u.X.9.d.g v J s.U.J.D.-XeX,Xi.3 . X o o o o o . X                   ",
"                # . o . . %.m.e.t.t.t.t.t.t.t.t.t.t.t.t.t.t.u.@.>.g.R..XP L.I.C.$XsXiXeXP./ . o o o o o o o . #                 ",
"                . . . . o *.m.e.t.t.t.t.t.t.t.t.t.t.t.t.t.t.i.+.2.<.S.T.a I.J.f.^.aXsXtXP.) . . o o o o o o o .                 ",
"              . . o < ~.v :.M.q.i.u.t.t.t.t.t.t.t.t.t.t.t.t.b.3.3.1.w.f f.I.H.~ $X|.2X=XP.6 . o o o o o o o X @ .               ",
"            X 1 E ).6XQ.0 d.p.-.r.q.c.q.i.u.t.t.t.u.i.q.c.c.b.;.#.a.p.f s.I.V.A.%XA.~.$X9.* . o o o o o o o o X . #             ",
"            ~ ,X>X{.5Xd 2 z h l k Z g.6.t.q.q.c.q.i.r.6.g.p.Z M H j h h d K.J.d.eX-X=XG./ . . o o o o o o o o o o .             ",
"          |.&X).).|.W.0 -.m.v.a.C H l h V G p.a.p.F V M k k j k k V Z a.#.=.Y.-.j.8Xk.) . . + o o o o o o o o o o . #           ",
"          `.).).).,XH 6 ,.` ' :.0. .p F U h h j j j k k H K G a.g.7.q.c.c.4.;.Z._ / ' -.r . . X o o o o o o o o o o .           ",
"        ).[.).).).).|.Y c I I b r { >.o.p A G E E G d.a.a.;.%.3.4.0.u.t.e.b.9.3.6.*.r.n.F.o.. . o o o o o o o o o X . #         ",
"        ).).).).).).).*X*X|.;X*XR.v _ { 8.] _ } } | ] ] ` O.X.4.t.u.t.t.t.t.u.i.i.b.i.n.H.*.. . o o o o o o o o o o . .         ",
"      ].[.).).).).).).).).).).).#X*XE.x _ 8.c.y.3.+.2.5.t.n.n.i.t.t.t.t.t.t.e.u.n.N.m.6.7 . . X o o o X . . o o o o X . =       ",
"      ).`.).).).).).).).).).).).).).#X*XI x r [ w.N.N.m.i.u.t.t.t.t.t.u.b.m.M.0.:.| 4 . . . o o o o X . + 1 . o o o o . #       ",
"      ).).).).).).).).).).).).).).).).).#X*XW.M y 8 _ :.9.w.c.b.b.b.c.0.>.` r A < . . . . . o o o o o . (.3X. . o o o . o       ",
"      [.).).).).).).).).).).).).).).).).).).|.,X$XW.H c t u i r 8 i u t b M I -X%X. . . : < . o o o . : pXoX. . o o o o .       ",
"    ].[.).).).).).).).).).).).).).).).).).).).).). X;X*X$X~.W.R.R.W.~.^.%X;X|.).,XY . w yXpXw . o . . OXuXOX. . o o o X . =     ",
"    ).).).).).).).).).).).).).).).).).).).).).).).).).).).{.}.|.|. X{.'.).).).).;XE S yX3XyXl.. . . T uX3XoXo . o o o o . $     ",
"    ).).).).).).).).).).).).).).).).).).).).).).).).).).).).).).).).).).).).).;XB D yX1XoX9X].. . S yX<X3XoXX . o o o o . #     ",
"    ).).).).).).).).).).).).).).).).).).).).).).).).).).).).).|.XX|.).).).).|.R T 0X:XoXoX0X3X. F pX<XoX3XoXo . o o o o . X     ",
"    ).).).).).).).).).).).).).).'.).).).).).).).).).).).).{.}.! R ~ }.{.).).;Xc ].uX9XqX9XoX, n yX<XoX@X9XoX. . o o o o o X     ",
"    ).).).).).).).).).).).).{./.).'.).).).).).).).).).).'.).! v v L _.}.'.).{./.B l.l.l.B 1 l.wX<XoX@XoX9XOX. . o o o o o X     ",
"    ).).).).).).).).).).).).}.! ! }.).).).).).).).).).).{.).n n /.m n Y ).{.).|.{.E Y ~ c oXyXoXoX:X:XoX3XoX+ . o o o o . X     ",
"    ).).).).).).).).).).).).'.(.R }.).).).).).).).).).).).|.V +Xz.e z.B {.'.).).).|.|.}.S 4XoX:X:X:X<X:X3X1X% . o o o o . #     ",
"    ).).).).).).).).).).).).).|.E /.{.).).).).).).).).).).{. XB e +X)./.}.).).).).).).|.V l.0XoX@X:X<X<X1X3X= . o o o o . $     ",
"    ].[.).).).).).).).).).).).|.E E ;X).).).).).).).).).).).{./.^ ^ Q |.).).).).).).).}.!.V 0X<X@X:X<X<X1X3X: . o o o X . =     ",
"      [.).).).).).).).).).).).{./.V |.).).).).).).).).).).).).}.|. X}.).).).).).).).).).;XY T yX1XoXoX@X1X1X% . o o o o .       ",
"      ).).).).).).).).).).).).).XXN ! }.).).).).).).).).).).).).).).).).).).).).).).).).).|.Y S <X0X9X1X0X<X. . o o o . o       ",
"      ).`.).).).).).).).).).).).XXE V ,X).).).).).).).).).).).).).).).).).).).).).).).).|.}.|.R V W A.].4XT . o o o o . #       ",
"      ].[.).).).).).).).).).).).).{.v {.'.).).'.'.).).).).).).).).).).).).).).).).).{.! P /.;X|.{.R Y S l.> . + o o X . =       ",
"        ).).).).).).).).).).).).).,XN B ,X).'._.'.).).).).).).).).).).).).).).).).).).{.! v Y ,X{.}.|.;X|.% . o o o o .         ",
"        ).[.).).).).).).).).).).).{.).x }.{.}.! Q |.).).).).).).).).).).).).).).).).).).|.|.n c |.;X{.>Xx . o o o X . #         ",
"          [.).).).).).).).).).).).).,XB n >X).|.N /.|.).).).).).).).).).).).).).).).).).).'.,XE v R ! ,X< . + o o o .           ",
"          ).`.).).).).).).).).).).).).;Xx Q ;X}./., |.}.).).).).).).).).).).).'.).).).).).).).;X).Y Q >X, . + o X . #           ",
"            [.).).).).).).).).).).).).|.)., }.).;XQ < |.|.).).).).).).).).).).{.;X,X).).).).).).{.|.}.;XR . . o o .             ",
"            ].[.).).).).).).).).).).).).,XE c >X/.,XR < (.,X'.).).).).).).).,Xc % Y |.).).).).).).).).).,X: . + . #             ",
"              [.).).).).).).).).).).).).).,Xc E >X{.>X/.c E ).XX).).).).).).|.).+ . ! ;X).).).).).).).).;X> . . .               ",
"                [.).).).).).).).).).).).).{.}.N E ! ! _._.B S /.>X|.(.).).{.).|.}.n ! }.).).).).).).).;X/.. . .                 ",
"                  [.).).).).).).).).).).).).}.|.E E W Q ! ;X;X+ <  X2X'.)./.).|.;X>X{.).).).).).).).).>Xx . . #                 ",
"                  [.).).).).).).).).).).).).).).|.|.}.}.}.6XY . . + E >X>X! B V W |.|.|.;X|.|.|.{.).XX|.o . X                   ",
"                    ).).).).).).).).).).).).).).).).{.|.XXR . . + . . 1 /.5X}.^ N v n v N V B /.#X>X5Xc . #                     ",
"                      ).`.).).).).).).).).).).).).XX'.Q x . . o o X o . . V 2X6X6X|.}.).Q /.|.N : x > . X                       ",
"                          ).).).).).).).).).).{.|.R N ).Y . o o o o o o . . > N V c c ! |.{.N o . . .                           ",
"                            ).).).).).).).).'.'.S B {.5XQ . . o o o o o o o . . . . . . . . . . . o                             ",
"                              ].).).).).).).{.! ! ;X).}._.. . o o o o o o o o o o o X . . . . . $                               ",
"                                  ).).).).).).{.}.).).{.}.% . o o o o o o o o o o o o o . . X                                   ",
"                                      ).).).).).).).).).;X1 . o o o o o o o o o o . . o +                                       ",
"                                            ).).[.[.).).>X, . o o o o o . o . . o + +                                           ",
"                                                  ].).).>Xc . o o o o o X o #                                                   ",
"                                                            X + + # $                                                           ",
"                                                                                                                                ",
"                                                                                                                                ",
"                                                                                                                                "
};
