/* XPM */
static char *_9e1cac8d945492ddef60fc3a304727btqf0MJzMmv7ohHK3[] = {
/* columns rows colors chars-per-pixel */
"32 32 170 2 ",
"   c None",
".  c #020203",
"X  c #060907",
"o  c #030608",
"O  c #060A09",
"+  c #080B08",
"@  c #090000",
"#  c #160300",
"$  c #0B110C",
"%  c #0B1B0D",
"&  c #1A1209",
"*  c #100F10",
"=  c #161716",
"-  c #1A231B",
";  c #242324",
":  c #2A2A2A",
">  c #393839",
",  c #441E00",
"<  c #4E2B12",
"1  c #553518",
"2  c #702E10",
"3  c #3F443D",
"4  c #7B461D",
"5  c #49433B",
"6  c #6A4424",
"7  c #784922",
"8  c #7C512A",
"9  c #3B4D5D",
"0  c #3D525C",
"q  c #164D71",
"w  c #335465",
"e  c #444544",
"r  c #484B48",
"t  c #554C4D",
"y  c #4D534D",
"u  c #4D5F4D",
"i  c #56524A",
"p  c #464E56",
"a  c #4B5556",
"s  c #5C5C5B",
"d  c #605D56",
"f  c #5E625C",
"g  c #69635D",
"h  c #786453",
"j  c #77695B",
"k  c #425B66",
"l  c #636562",
"z  c #6B6C6B",
"x  c #68686C",
"c  c #776C62",
"v  c #6D726D",
"b  c #6A7B68",
"n  c #7B7269",
"m  c #68737A",
"M  c #737473",
"N  c #747C73",
"B  c #7B7C7B",
"V  c #79787D",
"C  c #6A6974",
"Z  c #924E18",
"A  c #A7500C",
"S  c #AF541F",
"D  c #BF571A",
"F  c #856218",
"G  c #854D23",
"H  c #9C4C2B",
"J  c #9D5225",
"K  c #9B5B26",
"L  c #845E3E",
"P  c #AB5A27",
"I  c #B65F29",
"U  c #92602B",
"Y  c #8F6038",
"T  c #AC632B",
"R  c #BE662D",
"E  c #A4663C",
"W  c #B86E36",
"Q  c #B9713F",
"!  c #C35A14",
"~  c #C9621C",
"^  c #EA6B1D",
"/  c #F7701F",
"(  c #CA6325",
")  c #CC692E",
"_  c #C7662D",
"`  c #D76928",
"'  c #DA712A",
"]  c #C46830",
"[  c #D16E32",
"{  c #C67534",
"}  c #D97934",
"|  c #EC6F24",
" . c #EA7225",
".. c #FF7F2C",
"X. c #F77525",
"o. c #EC7632",
"O. c #EC7934",
"+. c #F47D36",
"@. c #FC7D34",
"#. c #F17633",
"$. c #855E46",
"%. c #8A644C",
"&. c #946749",
"*. c #A16D4D",
"=. c #B36B45",
"-. c #B07644",
";. c #518950",
":. c #7C857D",
">. c #B9853F",
",. c #FF822D",
"<. c #FF8539",
"1. c #FE8836",
"2. c #FF9539",
"3. c #EAA437",
"4. c #B89B4F",
"5. c #80807F",
"6. c #FF9541",
"7. c #FF9841",
"8. c #CBA353",
"9. c #D5A466",
"0. c #F5C049",
"q. c #837C81",
"w. c #6A8190",
"e. c #7C96A6",
"r. c #6D9AC1",
"t. c #848484",
"y. c #858A84",
"u. c #8D8D8D",
"i. c #898788",
"p. c #918F8B",
"a. c #879187",
"s. c #8D908D",
"d. c #8A9A89",
"f. c #918C90",
"g. c #929392",
"h. c #979997",
"j. c #949799",
"k. c #999698",
"l. c #9A9B9A",
"z. c #989999",
"x. c #868F99",
"c. c #94A293",
"v. c #9BA99A",
"b. c #9BA79A",
"n. c #A0B09E",
"m. c #889AA4",
"M. c #8499A6",
"N. c #969DA0",
"B. c #8CA1AB",
"V. c #A3A4A4",
"C. c #ADAEAD",
"Z. c #A7A8A6",
"A. c #A4B4A4",
"S. c #ACB4AC",
"D. c #A9B8A8",
"F. c #B0B1AF",
"G. c #B3B4B3",
"H. c #D7AA91",
"J. c #B0C0AF",
"K. c #B5C5B4",
"L. c #BBCFBA",
"P. c #FFDE87",
"I. c #C0D0BF",
"U. c #ABB7CD",
"Y. c #B7C0C4",
"T. c #C2C4C0",
"R. c #C8DBC7",
"E. c #CFE0CD",
"W. c #E9FFFF",
"Q. c #F9FFF8",
/* pixels */
"                        7 G                                     ",
"                    1 J P P I W                                 ",
"                  { 7.1.+.) _ ` } < . $ +                       ",
"                } 2.#.o.+.<.R ) ) J # . X X X                   ",
"              K 7.o.O.O.O.+.O._ ( S I . . . . X $               ",
"            & <.<.O.O.O.O.O.+.` ] 5 x i F , . o o X             ",
"          . < 6.O.O.O.O.O.O.+.| %.q a 0.P.H.2 . O o .           ",
"        . . 4 2.@.O.O.O.O.O.@.| ` C 4.3.U.W.=.. o O o X         ",
"      - t m i -.O.,.......,.,.[ _ t 4.9.r.T.H . o X O . %       ",
"      f.Y.n 7 $.d g *.Q =.%.f k w p >.8.x.=.# . X X X X .       ",
"    h.k.x.h E E Z 8 a w w 0 y L [ ,.o.{ D  .U . . X X X . +     ",
"    u.u.u.j.e.e.B Y A ! ( '  .X.@.@.<...1.7.K . o . . X o .     ",
"  a.f.u.u.u.u.p.N.e.V &.T ~ / X.| ^ ~ W 6 @ . . X . y = . . %   ",
"  a.f.u.u.u.u.u.u.p.l.M.w.m c h h j z M.9 o :.- . e E.X . . %   ",
"  u.u.u.u.u.u.u.u.u.u.u.g.N.m.m.B.m.N.k.B b.Q.3 X I.J.X . o X   ",
"  u.u.u.u.u.u.u.u.u.u.u.u.u.g.i.q.k.h.z d.R.b.y c.R.c.X . X X   ",
"  u.u.u.u.u.g.t.u.g.u.u.u.g.u.f u v g.u.:.N l A.K.D.v.X . X X   ",
"  u.u.u.u.u.g.t.B j.u.u.u.s.f.N ;.b u.g.g.V y.L.b.D.A.= . o X   ",
"  a.f.u.u.u.u.g.M u.u.u.u.u.g.u.q.g.s.u.u.j.M d.K.K.J.= . . %   ",
"  a.f.u.u.u.u.z.M B z.u.u.u.u.g.h.u.u.u.u.u.g.B y.n.c.. . . %   ",
"    u.u.u.u.u.g.i.x z.u.s.u.u.u.u.u.u.u.g.u.M t.i.g.r . X .     ",
"    a.u.u.u.u.u.l.z B g.M z.u.u.u.u.u.g.s.g.u.x B V.; . . +     ",
"      f.u.u.u.u.s.g.l h.M v l.s.u.u.s.t.j.g.s.j.B z.> . .       ",
"      a.f.u.u.u.u.z.t.x l.M x z.V.i.z.t.: t.j.u.g.F.x . %       ",
"        f.u.u.u.u.u.h.5.M t.g.x M G.s.u.B u.l.j.u.S.> .         ",
"          f.u.u.u.u.u.g.j.g.l.= . s V.g.g.u.B g.C.t..           ",
"            u.u.u.u.u.g.t.u.: . . . ; t.z l t.e ; $             ",
"              s.u.u.g.u.M Z.e . O X . . . X * . .               ",
"                  u.u.u.g.C.s . X X X . . . .                   ",
"                        u.V.M . . X X + +                       ",
"                              . X                               ",
"                                                                "
};
