/* XPM */
static char *_799694ad8b94b8ef093870750e9b40dgE9pVcEwPrBoqfg2[] = {
/* columns rows colors chars-per-pixel */
"16 16 157 2 ",
"   c None",
".  c black",
"X  c #000001",
"o  c #020002",
"O  c #020203",
"+  c #040405",
"@  c #080000",
"#  c #040907",
"$  c #060907",
"%  c #060A07",
"&  c #0D0E0D",
"*  c #051107",
"=  c #061108",
"-  c #151816",
";  c #1C1F1C",
":  c #301400",
">  c #321C00",
",  c #222122",
"<  c gray15",
"1  c #242926",
"2  c #2D2B2D",
"3  c #2F292F",
"4  c gray21",
"5  c #3C3D3C",
"6  c #4F2C1D",
"7  c #6B3B1A",
"8  c #51312A",
"9  c #564736",
"0  c #6B4B30",
"q  c #404441",
"w  c #484748",
"e  c #5C4F43",
"r  c #4D534C",
"t  c #535454",
"y  c #575756",
"u  c #6A5049",
"i  c #7A5C43",
"p  c #665E51",
"a  c #5A625A",
"s  c #5B625A",
"d  c #61725E",
"f  c #626465",
"g  c #757675",
"h  c #757F73",
"j  c #767D74",
"k  c #7A7B79",
"l  c #7A7B7A",
"z  c #7C7A7C",
"x  c gray49",
"c  c #7E7E7E",
"v  c #AC541F",
"b  c #8E5629",
"n  c #965325",
"m  c #805333",
"M  c #A05C3A",
"N  c #A4632B",
"B  c #AB642C",
"V  c #A06135",
"C  c #A96730",
"Z  c #B86932",
"A  c #DC6612",
"S  c #FF791F",
"D  c #FF7C1C",
"F  c #D8793D",
"G  c #EA762F",
"H  c #F5772A",
"J  c #FF7B2D",
"K  c #E77634",
"L  c #F57734",
"P  c #F47C35",
"I  c #F97F38",
"U  c #83624B",
"Y  c #AF734A",
"T  c #B27247",
"R  c #AE7C5E",
"E  c #87766A",
"W  c #C37543",
"Q  c #CA7642",
"!  c #79847A",
"~  c #FF8330",
"^  c #FF9437",
"/  c #80817E",
"(  c #938072",
")  c #B79A60",
"_  c #99A476",
"`  c #FF9841",
"'  c #FF9F45",
"]  c #7F8180",
"[  c #6D8798",
"{  c #728998",
"}  c #71889B",
"|  c #838483",
" . c #868786",
".. c #878B86",
"X. c #8A8689",
"o. c #888888",
"O. c #888989",
"+. c gray54",
"@. c #8D8A8A",
"#. c #898F89",
"$. c #8B8C8B",
"%. c #8E8D8B",
"&. c #8D8D8D",
"*. c #8D8E8C",
"=. c #8C8F8C",
"-. c #8D8E8D",
";. c #8C8F8D",
":. c #8E8E8D",
">. c #8E8F8D",
",. c #8E8C8E",
"<. c #8E8D8E",
"1. c #8F8D8E",
"2. c #8F8D8F",
"3. c #8D8E8E",
"4. c #8E8F8E",
"5. c #8F8F8E",
"6. c gray56",
"7. c #8B908B",
"8. c #8C908C",
"9. c #8E908E",
"0. c #8F908E",
"q. c #8F908F",
"w. c #91908E",
"e. c #90918F",
"r. c #8D9091",
"t. c #8B979D",
"y. c #8C979D",
"u. c #909090",
"i. c gray57",
"p. c #939091",
"a. c #919291",
"s. c #929392",
"d. c #929492",
"f. c #939493",
"g. c #949594",
"h. c #959695",
"j. c #989496",
"k. c #979997",
"l. c #999898",
"z. c #989A99",
"x. c #9D989D",
"c. c #A29B97",
"v. c #94A293",
"b. c #9BA798",
"n. c #8099A6",
"m. c #8B9CA6",
"M. c #93ADA9",
"N. c #A0A1A0",
"B. c #A5A5A5",
"V. c #A7A8A7",
"C. c #A3A3A9",
"Z. c #A9ABA9",
"A. c #AFB0AF",
"S. c #C5ADAA",
"D. c #BCCEBB",
"F. c #FFEEBB",
"G. c #E2F8E1",
/* pixels */
"            n B                 ",
"        N ` P K v @ .           ",
"      7 ' L I G M 9 > . $       ",
"    . C ^ J ~ D u _ F.8 . $     ",
"    f b Z W T U i ) S.6 . .     ",
"  C.c.E p 0 m V H S A : . . $   ",
"8.@.r.m.t.( Y F Q R e - 1 r . = ",
"*.*.*.%.w.y.n.[ { { M.! b.h . + ",
"*.*.8.o.o.8.j.j d a./ v.G.s . . ",
"7.*.*.o.x f.*.*.$.a.X...D.s . * ",
"  *.*.f.x ] *.h.*.w.k.z  ., .   ",
"    *.8.*.l g h.A.| l l.B.2     ",
"    *.*.a.*.*.t y N.a.Z.x.;     ",
"      *.*.a.l.< . 2 w 4 &       ",
"          $.V.5 . . .           ",
"              q .               "
};
