<?xml version="1.0" standalone="no"?>
<!DOCTYPE svg PUBLIC "-//W3C//DTD SVG 20010904//EN"
 "http://www.w3.org/TR/2001/REC-SVG-20010904/DTD/svg10.dtd">
<svg version="1.0" xmlns="http://www.w3.org/2000/svg"
 width="1024.000000pt" height="1083.000000pt" viewBox="0 0 1024.000000 1083.000000"
 preserveAspectRatio="xMidYMid meet">

<g transform="translate(0.000000,1083.000000) scale(0.100000,-0.100000)"
fill="#000000" stroke="none">
<path d="M3945 10515 c-305 -49 -539 -116 -720 -205 -126 -62 -183 -105 -320
-239 -60 -59 -150 -144 -200 -188 -166 -149 -310 -339 -417 -547 -43 -85 -60
-108 -107 -144 -120 -92 -151 -118 -296 -253 -288 -266 -521 -536 -730 -844
-101 -149 -228 -362 -223 -374 1 -5 57 13 123 40 234 97 923 349 952 349 2 0
3 -20 3 -44 0 -39 -4 -48 -36 -73 -125 -99 -140 -132 -129 -278 l6 -90 -54
-47 c-141 -122 -128 -280 28 -354 65 -31 162 -32 243 -4 31 11 82 23 112 26
109 12 319 -77 775 -331 460 -255 578 -309 940 -430 553 -185 992 -254 1446
-226 181 11 215 15 424 53 186 33 454 107 644 177 47 17 85 30 86 28 1 -1 14
-44 29 -95 38 -134 100 -251 183 -343 l33 -37 -101 -93 c-113 -104 -272 -278
-296 -323 -23 -45 -14 -148 20 -218 23 -47 40 -65 95 -101 90 -59 149 -78 262
-84 102 -6 225 13 403 61 l88 23 -29 -31 c-43 -47 -61 -80 -78 -146 -14 -55
-14 -68 1 -143 100 -502 451 -858 965 -978 80 -19 126 -23 287 -23 106 -1 193
-4 193 -7 0 -4 -39 -85 -87 -180 l-88 -174 1 -155 c1 -189 20 -298 63 -366 48
-75 64 -144 59 -259 -6 -123 -30 -202 -132 -427 -40 -90 -76 -182 -80 -206
-13 -87 -91 -168 -206 -214 -70 -28 -202 -29 -270 -3 -61 23 -231 71 -305 85
-33 7 -139 14 -235 15 -126 2 -204 9 -280 24 -70 14 -144 21 -221 21 -126 0
-171 11 -284 67 -70 35 -142 59 -205 67 -25 4 -88 21 -140 39 -76 25 -103 41
-138 74 -46 47 -52 50 -52 29 0 -33 88 -111 171 -152 82 -40 97 -46 208 -79
30 -9 84 -34 120 -56 122 -73 230 -101 356 -91 36 2 96 -3 150 -13 73 -15 149
-18 400 -20 171 -1 321 -5 334 -10 l23 -8 -28 -12 c-16 -7 -56 -37 -89 -67
-213 -193 -416 -235 -705 -147 -59 18 -89 20 -310 17 -210 -3 -254 0 -309 15
-117 32 -190 74 -271 158 -59 60 -93 86 -160 119 -47 23 -128 73 -180 110 -52
37 -125 86 -163 109 -37 22 -120 76 -185 120 -64 44 -218 134 -342 202 -384
208 -469 268 -664 463 -193 192 -319 366 -433 594 -90 180 -105 177 -41 -8 87
-249 222 -456 436 -667 175 -173 364 -294 670 -428 34 -15 62 -30 62 -34 0
-13 -42 -116 -72 -174 -71 -142 -156 -242 -253 -296 -33 -19 -152 -86 -265
-149 -261 -146 -343 -198 -458 -290 -91 -73 -202 -199 -202 -229 0 -8 33 16
74 55 92 86 193 154 456 312 113 67 217 131 232 141 50 36 50 37 73 -199 9
-85 18 -159 21 -163 2 -4 11 -54 18 -111 8 -57 24 -168 35 -248 23 -164 47
-362 57 -463 3 -37 10 -70 15 -72 4 -3 93 -10 196 -14 212 -10 581 2 738 24
55 7 123 16 150 20 78 9 310 54 415 80 550 134 1079 364 1520 661 132 88 135
91 225 157 461 340 899 815 1205 1306 180 290 359 660 450 931 17 52 35 104
40 115 17 42 50 155 84 285 179 695 202 1394 69 2100 -36 195 -117 506 -153
595 -5 11 -23 63 -40 115 -154 460 -451 985 -808 1430 -137 170 -509 543 -662
663 -67 53 -261 200 -290 220 -426 293 -809 485 -1272 637 -352 116 -818 207
-1152 225 -108 6 -111 7 -170 47 -128 85 -379 192 -556 237 -169 43 -607 63
-775 36z m505 -25 c69 -6 161 -18 205 -26 302 -57 670 -247 835 -431 54 -61
120 -155 120 -171 0 -6 -48 -13 -107 -17 -60 -4 -114 -7 -122 -8 -8 -1 -38 31
-66 71 -197 276 -432 423 -805 503 -95 21 -132 23 -375 23 -172 0 -300 -5
-353 -13 -45 -8 -85 -11 -88 -8 -3 3 28 15 68 27 40 12 86 26 101 30 15 5 76
14 135 21 59 6 109 13 112 16 6 6 168 -2 340 -17z m-125 -130 c314 -55 541
-156 722 -324 156 -145 247 -309 324 -586 13 -46 42 -249 53 -365 4 -43 3 -55
-4 -43 -6 9 -15 68 -21 130 -6 62 -14 122 -19 133 -5 11 -12 47 -15 80 -4 33
-10 65 -15 70 -4 6 -11 31 -14 57 -4 26 -11 50 -17 53 -5 4 -9 14 -9 23 0 29
-74 184 -123 260 -44 67 -142 174 -212 233 -38 31 -165 108 -225 136 -25 11
-83 33 -130 48 -47 15 -92 31 -101 36 -9 4 -38 10 -65 14 -27 3 -58 10 -69 15
-52 24 -475 51 -475 31 0 -6 -13 -11 -30 -11 -47 0 -35 -18 18 -25 26 -4 58
-10 72 -15 14 -5 46 -12 73 -16 26 -3 47 -10 47 -14 0 -4 20 -11 45 -14 25 -4
45 -11 45 -17 0 -5 7 -9 16 -9 27 0 163 -69 219 -112 149 -113 278 -260 356
-408 13 -25 27 -46 32 -48 4 -2 7 -9 7 -15 0 -7 9 -29 20 -50 11 -20 20 -44
20 -52 0 -8 4 -15 9 -15 5 0 12 -16 15 -35 4 -19 11 -35 15 -35 5 0 12 -17 16
-37 4 -21 10 -42 14 -48 8 -10 20 -49 47 -160 31 -123 45 -181 49 -215 3 -19
7 -42 10 -50 9 -30 45 -289 59 -430 15 -144 21 -238 31 -485 8 -186 10 -195
43 -196 24 -1 23 -2 -8 -9 -19 -5 -36 -7 -38 -5 -2 1 -7 103 -12 226 -11 272
-32 512 -64 734 -14 93 -23 144 -59 320 -72 348 -233 682 -422 870 -122 123
-302 235 -415 260 -19 4 -41 11 -50 16 -17 9 -86 25 -175 41 -33 5 -146 11
-251 12 -190 1 -233 8 -131 21 28 4 68 11 87 16 96 26 570 32 705 9z m-548
-111 c186 -22 403 -94 555 -185 215 -128 388 -378 507 -729 132 -393 176 -642
206 -1163 8 -140 15 -275 15 -301 l0 -48 -162 -46 c-228 -63 -383 -100 -602
-141 -104 -20 -214 -43 -245 -51 -268 -68 -570 -34 -1111 125 -564 166 -634
182 -787 184 -68 0 -123 4 -123 7 0 3 17 22 38 41 l39 36 7 133 c15 286 47
575 81 725 88 384 286 732 560 979 49 44 140 131 203 193 124 123 236 204 316
227 105 30 319 36 503 14z m2151 -894 c33 -55 84 -148 113 -206 l52 -106 81
-33 c45 -19 100 -42 124 -52 l43 -19 -50 -25 -51 -26 -222 82 c-123 45 -229
83 -237 86 -12 4 -12 7 1 17 13 10 14 22 7 67 -5 30 -14 93 -21 140 -7 47 -16
90 -19 95 -4 6 -9 39 -13 75 -4 36 -11 81 -16 100 -4 19 -11 58 -15 85 l-7 50
86 -115 c47 -63 112 -160 144 -215z m-430 -356 c-2 -23 -10 -34 -27 -41 -24
-9 -24 -8 -7 11 21 23 14 41 -17 42 -21 0 -21 1 -2 9 42 18 56 12 53 -21z
m1264 -64 c76 -16 224 -83 252 -114 16 -17 14 -18 -40 -8 -81 14 -145 -3 -235
-63 -200 -130 -392 -408 -455 -657 -43 -171 -30 -393 33 -551 46 -113 134
-200 218 -215 117 -21 112 -19 85 -27 -55 -17 -226 -11 -294 11 -227 70 -400
246 -462 470 -27 95 -25 314 4 431 85 344 237 567 459 674 129 62 286 80 435
49z m-1465 -227 c-2 -13 -4 -5 -4 17 -1 22 1 32 4 23 2 -10 2 -28 0 -40z
m1565 -19 c169 -35 268 -205 268 -457 0 -231 -86 -438 -246 -591 -104 -100
-185 -142 -287 -149 -64 -4 -79 -1 -122 21 -55 28 -80 51 -119 115 -45 72 -59
150 -54 297 4 112 9 143 37 224 85 252 260 487 399 537 46 16 58 17 124 3z
m-1545 -136 c-3 -10 -5 -2 -5 17 0 19 2 27 5 18 2 -10 2 -26 0 -35z m597 -16
c17 -12 17 -15 1 -55 -16 -39 -27 -47 -132 -105 -64 -34 -122 -73 -131 -86
-12 -18 -18 -63 -23 -180 -4 -86 -8 -162 -8 -168 -1 -7 -11 -12 -23 -12 -17 1
-19 2 -5 6 39 10 9 120 -65 239 -45 72 -50 99 -25 145 21 39 44 67 82 98 9 7
62 33 118 58 56 24 113 50 127 57 32 18 62 19 84 3z m-587 -89 c-2 -13 -4 -5
-4 17 -1 22 1 32 4 23 2 -10 2 -28 0 -40z m206 -535 c-7 -2 -19 -2 -25 0 -7 3
-2 5 12 5 14 0 19 -2 13 -5z m-60 -10 c-7 -2 -19 -2 -25 0 -7 3 -2 5 12 5 14
0 19 -2 13 -5z m-80 -20 c-7 -2 -19 -2 -25 0 -7 3 -2 5 12 5 14 0 19 -2 13 -5z
m-60 -10 c-7 -2 -19 -2 -25 0 -7 3 -2 5 12 5 14 0 19 -2 13 -5z m-90 -20 c-7
-2 -21 -2 -30 0 -10 3 -4 5 12 5 17 0 24 -2 18 -5z m-2857 -293 c149 -35 631
-212 699 -256 74 -47 324 -141 470 -176 124 -30 477 -33 630 -5 129 24 467
106 665 162 503 141 938 255 1035 269 38 6 41 4 75 -41 79 -105 253 -217 386
-249 93 -22 271 -14 369 16 79 24 181 77 234 121 20 16 39 29 44 29 18 0 190
-123 240 -173 201 -196 100 -321 -418 -514 -639 -238 -886 -310 -1215 -357
-463 -66 -907 -29 -1435 119 -449 126 -690 231 -1220 530 -202 114 -464 241
-576 279 -130 44 -194 47 -303 11 -82 -27 -147 -32 -193 -14 -102 38 -96 133
14 213 54 40 63 43 63 21 0 -22 56 -19 90 5 15 11 45 24 66 30 52 12 183 3
280 -20z m6172 -907 c53 -135 63 -273 73 -968 4 -346 11 -745 15 -886 7 -274
-1 -396 -37 -549 -21 -92 -38 -144 -56 -175 -11 -19 -22 -20 -190 -20 -242 0
-388 32 -577 127 -254 127 -455 347 -556 609 -60 158 -78 304 -44 374 36 76
153 166 342 262 99 50 108 57 134 106 55 101 140 199 233 269 50 37 100 80
113 95 47 57 142 203 232 358 164 282 265 425 300 425 4 0 12 -12 18 -27z
m-1257 -371 c109 -57 142 -129 174 -382 9 -69 23 -160 32 -202 19 -93 13 -115
-54 -182 -71 -70 -192 -127 -363 -170 -299 -74 -435 -74 -567 -1 -83 45 -116
96 -121 183 l-4 67 64 75 c80 93 310 315 403 388 38 31 108 91 155 134 134
124 185 140 281 90z m274 -753 c-10 -15 -25 -10 -19 6 4 8 10 12 15 9 5 -3 7
-10 4 -15z"/>
<path d="M3785 10341 c6 -11 45 -10 45 1 0 4 -12 8 -26 8 -14 0 -23 -4 -19 -9z"/>
<path d="M5730 9587 c0 -9 4 -25 9 -35 5 -9 14 -55 20 -102 11 -86 36 -249 45
-285 2 -11 5 -23 5 -26 1 -4 20 -9 44 -13 23 -4 75 -16 115 -28 40 -11 75 -18
78 -15 10 10 -148 307 -168 315 -4 2 -8 8 -8 13 0 8 -56 92 -82 124 -4 5 -20
24 -33 40 -19 23 -25 26 -25 12z"/>
<path d="M2225 7481 c3 -5 20 -12 38 -16 272 -54 431 -112 777 -285 336 -168
393 -190 602 -231 146 -29 448 -31 633 -5 149 21 386 69 525 106 346 94 719
220 649 220 -8 0 -129 -29 -269 -64 -682 -171 -1107 -224 -1451 -182 -220 28
-337 67 -704 241 -236 111 -411 168 -645 210 -97 17 -164 19 -155 6z"/>
<path d="M5105 5457 c-70 -24 -137 -63 -245 -143 -58 -44 -117 -86 -130 -95
-14 -9 -22 -20 -18 -24 10 -11 74 18 185 82 203 118 280 140 387 109 72 -21
133 -54 224 -124 40 -30 75 -52 79 -49 9 10 -85 114 -141 157 -112 85 -245
119 -341 87z"/>
<path d="M2470 5449 c0 -11 179 -650 265 -944 77 -266 220 -645 312 -830 78
-154 115 -218 292 -487 86 -130 192 -292 236 -360 139 -214 269 -319 430 -349
91 -17 308 -5 450 25 171 36 345 82 359 96 14 16 -34 10 -169 -18 -264 -56
-510 -71 -632 -39 -180 47 -252 121 -468 477 -49 80 -127 204 -175 275 -278
418 -377 647 -693 1601 -86 259 -165 492 -176 517 -20 45 -31 59 -31 36z"/>
<path d="M5610 5311 c0 -5 11 -28 24 -52 35 -63 69 -170 58 -181 -6 -6 -60 17
-143 60 -208 109 -373 150 -490 122 -44 -11 -66 -24 -115 -72 -61 -58 -84 -68
-131 -53 -40 13 -27 -25 26 -75 27 -25 74 -84 106 -130 32 -47 70 -100 84
-119 l26 -34 -29 7 c-72 18 -89 19 -81 6 10 -17 116 -63 190 -83 109 -30 318
-46 394 -31 37 8 41 24 6 24 -14 0 -25 3 -25 6 0 3 21 34 46 67 52 70 86 133
105 195 10 34 20 46 45 57 70 29 57 106 -44 248 -32 44 -52 59 -52 38z m-249
-178 c46 -29 69 -71 69 -128 0 -80 -43 -135 -121 -156 -42 -11 -50 -10 -93 11
-60 29 -101 85 -116 157 -10 48 -10 61 4 90 21 45 46 53 142 50 61 -2 89 -8
115 -24z m-292 -15 c-14 -26 -5 -114 17 -166 19 -46 68 -98 116 -123 135 -70
292 66 258 223 -6 28 -9 52 -8 54 3 2 176 -74 187 -83 3 -2 -4 -16 -15 -31
-12 -15 -26 -42 -32 -60 -15 -43 -73 -130 -115 -170 l-34 -33 -89 11 c-219 26
-213 25 -244 56 -49 50 -191 257 -182 266 11 11 135 77 145 78 4 0 3 -10 -4
-22z"/>
<path d="M5250 5121 c0 -5 7 -14 16 -21 8 -8 14 -25 12 -39 -3 -23 -7 -26 -43
-25 -22 1 -49 3 -60 5 -17 3 -20 -1 -18 -26 5 -61 51 -105 112 -105 88 0 139
108 82 174 -26 30 -101 58 -101 37z"/>
<path d="M6876 3991 c-6 -9 16 -19 109 -46 134 -39 259 -120 467 -301 216
-188 289 -239 406 -280 44 -16 89 -24 133 -24 77 0 185 30 221 61 l23 20 -30
-5 c-130 -25 -159 -27 -223 -16 -122 21 -195 66 -429 266 -249 213 -379 286
-563 318 -109 19 -107 19 -114 7z"/>
<path d="M6313 3012 c-21 -13 -25 -58 -9 -97 22 -51 206 -234 276 -274 67 -38
127 -42 156 -10 37 41 17 245 -29 287 -56 51 -351 122 -394 94z"/>
</g>
</svg>
